<svg xmlns="http://www.w3.org/2000/svg" viewBox="0 0 64 64">
  <rect width="64" height="64" rx="16" fill="#050505"/>
  <circle cx="32" cy="32" r="22" fill="none" stroke="#fff" stroke-width="4"/>
  <path d="M21 37c2.2 3.2 5.8 5 10.7 5 5.5 0 9.3-2.7 9.3-6.7 0-3.6-2.4-5.3-8.2-6.4-4.1-.8-5.5-1.4-5.5-3 0-1.7 1.6-2.8 4.4-2.8 3 0 5.2 1.1 6.7 3.3l4.4-3.2c-2.3-3.3-6-5.1-10.9-5.1-5.8 0-9.7 2.9-9.7 7.1 0 3.9 2.7 5.8 8.4 6.9 3.9.8 5.2 1.3 5.2 2.9 0 1.5-1.5 2.5-4.1 2.5-2.9 0-5.2-1.2-6.8-3.5L21 37Z" fill="#fff"/>
  <circle cx="49" cy="49" r="8" fill="#ff4a10"/>
</svg>
